{"glyphs":{"0":{"ha":856,"x_min":53,"x_max":803,"o":"m 258 1012 q 296 1039 258 1012 q 428 1065 333 1065 q 597 1012 522 1065 q 715 874 672 958 q 781 699 758 789 q 803 522 803 608 q 777 328 803 424 q 706 156 751 233 q 587 30 660 78 q 428 -18 514 -18 q 269 30 342 -18 q 150 156 196 78 q 78 328 104 233 q 53 522 53 424 q 75 699 53 608 q 140 874 97 789 q 258 1012 183 958 m 551 910 q 524 933 551 910 q 428 957 497 957 q 305 910 358 957 q 223 791 251 863 q 181 649 194 719 q 169 517 168 578 q 185 387 171 454 q 226 250 199 319 q 307 135 254 181 q 428 90 360 90 q 549 135 496 90 q 629 250 601 181 q 671 387 657 319 q 686 517 685 454 q 674 649 688 578 q 633 791 661 719 q 551 910 604 863 z "},"1":{"ha":856,"x_min":219,"x_max":510,"o":"m 393 939 l 219 939 l 281 1047 l 510 1047 l 510 0 l 393 0 l 393 939 z "},"2":{"ha":856,"x_min":57,"x_max":735,"o":"m 293 108 l 735 108 l 735 0 l 57 0 l 547 579 q 618 754 618 664 q 557 899 618 840 q 410 957 496 957 q 259 896 317 957 q 199 742 201 835 l 82 742 q 176 973 85 881 q 406 1065 268 1065 q 638 977 540 1065 q 735 756 735 889 q 656 535 735 626 l 293 108 z "},"3":{"ha":856,"x_min":79,"x_max":715,"o":"m 376 496 l 376 604 q 528 645 472 608 q 583 774 583 682 q 533 907 583 857 q 400 957 482 957 q 279 911 324 957 q 228 789 235 865 l 113 789 q 201 991 125 917 q 403 1065 276 1065 q 615 986 531 1065 q 700 779 700 907 q 664 645 700 708 q 565 550 628 582 q 677 447 639 517 q 715 293 715 378 q 621 69 715 157 q 390 -18 526 -18 q 171 63 261 -18 q 79 272 81 143 l 193 272 q 256 142 197 193 q 394 90 314 90 q 540 151 481 90 q 599 300 599 213 q 537 448 599 397 q 376 496 475 499 z "},"4":{"ha":856,"x_min":8,"x_max":790,"o":"m 661 278 l 790 278 l 790 169 l 661 169 l 661 0 l 544 0 l 544 169 l 8 169 l 658 1106 l 661 1106 l 661 278 m 544 278 l 544 751 l 542 751 l 213 278 l 544 278 z "},"5":{"ha":856,"x_min":29,"x_max":735,"o":"m 726 939 l 392 939 l 324 715 l 386 721 q 637 615 539 721 q 735 356 735 510 q 624 88 735 194 q 350 -18 513 -18 q 165 31 247 -18 q 29 169 82 81 l 122 236 q 220 131 158 171 q 354 90 282 90 q 544 167 469 90 q 618 358 618 243 q 543 540 618 468 q 357 613 468 613 q 158 546 261 613 l 310 1047 l 726 1047 l 726 939 z "},"6":{"ha":856,"x_min":61,"x_max":783,"o":"m 504 1065 l 592 1000 l 350 675 l 353 672 q 444 688 396 688 q 685 586 586 688 q 783 342 783 485 q 677 87 783 192 q 422 -18 571 -18 q 167 88 274 -18 q 61 340 61 193 q 157 592 61 458 l 504 1065 m 249 163 q 285 126 249 163 q 422 90 321 90 q 595 163 524 90 q 667 338 667 235 q 595 509 667 439 q 422 579 524 579 q 249 509 319 579 q 178 338 178 439 q 249 163 178 235 z "},"7":{"ha":856,"x_min":49,"x_max":843,"o":"m 643 939 l 71 939 l 71 1047 l 843 1047 l 140 -18 l 49 36 l 643 939 z "},"8":{"ha":856,"x_min":108,"x_max":747,"o":"m 572 434 q 542 464 572 434 q 428 493 513 493 q 284 434 343 493 q 225 292 225 375 q 284 149 225 208 q 428 90 343 90 q 572 149 513 90 q 631 292 631 208 q 572 434 631 375 m 219 982 q 262 1024 219 982 q 428 1065 304 1065 q 636 982 551 1065 q 721 774 721 899 q 687 641 721 704 q 593 544 653 578 q 706 443 665 511 q 747 293 747 375 q 656 70 747 158 q 428 -18 564 -18 q 200 70 292 -18 q 108 293 108 158 q 149 443 108 375 q 263 544 190 511 q 169 641 203 578 q 135 774 135 704 q 219 982 135 899 m 556 904 q 530 931 556 904 q 428 957 503 957 q 299 904 353 957 q 246 776 246 851 q 299 647 246 700 q 428 593 353 593 q 556 647 503 593 q 610 776 610 700 q 556 904 610 851 z "},"9":{"ha":856,"x_min":63,"x_max":785,"o":"m 340 -18 l 253 42 l 494 374 l 492 376 q 401 363 446 363 q 160 464 258 363 q 63 708 63 565 q 169 961 63 857 q 424 1065 275 1065 q 678 961 572 1065 q 785 708 785 857 q 688 457 785 592 l 340 -18 m 597 885 q 561 921 597 885 q 424 957 525 957 q 251 885 322 957 q 179 713 179 814 q 250 541 179 611 q 424 471 321 471 q 597 541 525 471 q 668 713 668 611 q 597 885 668 814 z "}," ":{"ha":428,"x_min":0,"x_max":0,"o":""},"(":{"ha":399,"x_min":129,"x_max":354,"o":"m 256 1094 l 354 1047 q 243 381 243 753 q 354 -286 243 8 l 256 -333 q 129 381 129 -64 q 256 1094 129 825 z "},")":{"ha":399,"x_min":44,"x_max":269,"o":"m 44 1047 l 143 1094 q 269 381 269 825 q 143 -333 269 -64 l 44 -286 q 156 381 156 8 q 44 1047 156 753 z "},",":{"ha":428,"x_min":81,"x_max":313,"o":"m 210 153 l 313 117 l 156 -239 l 81 -208 l 210 153 z "},".":{"ha":428,"x_min":136,"x_max":292,"o":"m 159 115 q 170 126 159 115 q 214 138 182 138 q 269 115 246 138 q 292 61 292 93 q 269 6 292 29 q 214 -18 246 -18 q 159 6 182 -18 q 136 61 136 29 q 159 115 136 93 z "},"/":{"ha":792,"x_min":25,"x_max":767,"o":"m 675 1146 l 767 1104 l 115 -218 l 25 -176 l 675 1146 z "},"A":{"ha":971,"x_min":8,"x_max":963,"o":"m 710 297 l 263 297 l 136 0 l 8 0 l 492 1097 l 963 0 l 833 0 l 710 297 m 664 406 l 489 825 l 310 406 l 664 406 z "},"B":{"ha":789,"x_min":106,"x_max":724,"o":"m 222 486 l 222 108 l 339 108 q 607 300 607 108 q 324 486 607 486 l 222 486 m 106 0 l 106 1047 l 278 1047 q 531 981 435 1047 q 628 764 628 914 q 525 560 628 628 q 670 463 617 538 q 724 292 724 388 q 619 72 724 143 q 349 0 515 0 l 106 0 m 222 939 l 222 586 l 267 586 q 363 592 325 586 q 438 614 400 597 q 493 668 475 631 q 511 764 511 706 q 452 906 511 872 q 268 939 393 939 l 222 939 z "},"C":{"ha":996,"x_min":46,"x_max":904,"o":"m 904 963 l 904 818 q 585 957 769 957 q 287 828 411 957 q 163 524 163 699 q 288 219 163 349 q 588 90 413 90 q 904 229 765 90 l 904 85 q 592 -18 763 -18 q 208 140 369 -18 q 46 519 46 297 q 206 905 46 744 q 592 1065 367 1065 q 904 963 767 1065 z "},"D":{"ha":942,"x_min":106,"x_max":885,"o":"m 106 0 l 106 1047 l 303 1047 q 529 1021 433 1047 q 711 921 625 994 q 885 522 885 771 q 714 132 885 285 q 531 27 626 54 q 300 0 436 0 l 106 0 m 222 108 l 307 108 q 492 131 414 108 q 638 217 571 154 q 768 524 768 339 q 632 838 768 718 q 488 918 565 897 q 307 939 411 939 l 222 939 l 222 108 z "},"E":{"ha":742,"x_min":106,"x_max":649,"o":"m 106 0 l 106 1047 l 649 1047 l 649 939 l 222 939 l 222 628 l 636 628 l 636 519 l 222 519 l 222 108 l 649 108 l 649 0 l 106 0 z "},"F":{"ha":664,"x_min":106,"x_max":582,"o":"m 582 939 l 222 939 l 222 628 l 571 628 l 571 519 l 222 519 l 222 0 l 106 0 l 106 1047 l 582 1047 l 582 939 z "},"G":{"ha":1139,"x_min":44,"x_max":1079,"o":"m 643 526 l 1079 526 q 1060 321 1082 407 q 971 157 1038 235 q 797 28 900 74 q 583 -18 693 -18 q 203 141 363 -18 q 44 521 44 300 q 204 906 44 746 q 590 1065 364 1065 q 1033 839 860 1065 l 949 760 q 589 957 808 957 q 286 828 411 957 q 161 519 161 699 q 283 224 161 349 q 422 127 343 164 q 581 90 501 90 q 839 184 724 90 q 954 418 954 278 l 643 418 l 643 526 z "},"H":{"ha":992,"x_min":111,"x_max":881,"o":"m 228 622 l 764 622 l 764 1047 l 881 1047 l 881 0 l 764 0 l 764 514 l 228 514 l 228 0 l 111 0 l 111 1047 l 228 1047 l 228 622 z "},"I":{"ha":332,"x_min":108,"x_max":225,"o":"m 225 1047 l 225 0 l 108 0 l 108 1047 l 225 1047 z "},"J":{"ha":436,"x_min":-92,"x_max":328,"o":"m 328 1047 l 328 218 q 326 131 328 163 q 312 55 324 100 q 275 -22 300 10 q 94 -108 210 -108 q -92 -31 0 -108 l -26 60 q 97 0 38 0 q 145 10 125 0 q 177 40 165 19 q 197 78 189 60 q 207 126 204 96 q 210 172 210 156 q 211 218 211 189 l 211 1047 l 328 1047 z "},"K":{"ha":849,"x_min":106,"x_max":842,"o":"m 222 599 l 668 1047 l 825 1047 l 333 560 l 842 0 l 681 0 l 251 481 l 222 451 l 222 0 l 106 0 l 106 1047 l 222 1047 l 222 599 z "},"L":{"ha":521,"x_min":106,"x_max":511,"o":"m 222 1047 l 222 108 l 511 108 l 511 0 l 106 0 l 106 1047 l 222 1047 z "},"M":{"ha":1244,"x_min":29,"x_max":1217,"o":"m 29 0 l 242 1107 l 622 228 l 1004 1107 l 1217 0 l 1097 0 l 963 708 l 960 708 l 622 -43 l 286 708 l 283 708 l 149 0 l 29 0 z "},"N":{"ha":1158,"x_min":113,"x_max":1046,"o":"m 113 0 l 113 1092 l 929 236 l 929 1047 l 1046 1047 l 1046 -47 l 229 807 l 229 0 l 113 0 z "},"O":{"ha":1197,"x_min":53,"x_max":1144,"o":"m 213 906 q 293 986 213 906 q 599 1065 374 1065 q 984 906 824 1065 q 1144 522 1144 747 q 984 140 1144 297 q 599 -18 824 -18 q 213 140 374 -18 q 53 522 53 297 q 213 906 53 747 m 903 830 q 840 893 903 830 q 599 957 778 957 q 294 830 419 957 q 169 524 169 703 q 295 218 169 346 q 599 90 421 90 q 902 218 776 90 q 1028 524 1028 346 q 903 830 1028 703 z "},"P":{"ha":699,"x_min":106,"x_max":656,"o":"m 222 458 l 222 0 l 106 0 l 106 1047 l 278 1047 q 425 1038 364 1047 q 538 992 486 1028 q 625 888 594 951 q 656 753 656 825 q 556 528 656 611 q 307 458 471 458 l 222 458 m 222 939 l 222 567 l 300 567 q 539 756 539 567 q 523 840 539 806 q 483 894 507 875 q 419 923 458 913 q 347 936 381 933 q 265 939 314 939 l 222 939 z "},"Q":{"ha":1197,"x_min":53,"x_max":1150,"o":"m 732 422 l 913 233 q 1028 524 1028 354 q 903 830 1028 703 q 599 957 778 957 q 294 830 419 957 q 169 524 169 703 q 295 218 169 346 q 599 90 421 90 q 832 168 729 90 l 579 422 l 732 422 m 1001 -10 l 914 85 q 765 9 850 36 q 599 -18 679 -18 q 213 140 374 -18 q 53 522 53 297 q 213 906 53 747 q 599 1065 374 1065 q 985 905 825 1065 q 1144 519 1144 744 q 993 150 1144 313 l 1150 -10 l 1001 -10 z "},"R":{"ha":753,"x_min":106,"x_max":711,"o":"m 222 939 l 222 563 l 258 563 q 356 569 314 563 q 440 595 399 576 q 502 653 481 614 q 524 750 524 692 q 508 835 524 800 q 471 891 493 871 q 411 922 449 911 q 340 936 374 933 q 257 939 306 939 l 222 939 m 222 460 l 222 0 l 106 0 l 106 1047 l 257 1047 q 401 1035 338 1047 q 522 992 465 1022 q 610 902 579 961 q 640 758 640 843 q 569 558 640 638 q 378 469 499 479 l 711 0 l 568 0 l 251 460 l 222 460 z "},"S":{"ha":776,"x_min":56,"x_max":711,"o":"m 674 903 l 581 843 q 400 957 515 957 q 278 911 329 957 q 226 794 226 865 q 240 736 226 763 q 283 690 254 710 q 333 658 313 669 q 390 631 353 647 l 460 600 q 558 551 519 574 q 635 494 597 528 q 692 413 674 460 q 711 306 711 365 q 615 76 711 169 q 382 -18 519 -18 q 169 56 257 -18 q 56 253 81 131 l 169 285 q 239 147 181 203 q 379 90 297 90 q 530 149 465 90 q 594 294 594 208 q 583 359 594 329 q 556 407 571 389 q 510 446 542 425 q 460 476 478 467 q 401 503 442 485 l 338 531 q 168 639 226 581 q 110 799 110 697 q 196 991 110 917 q 403 1065 282 1065 q 561 1023 490 1065 q 674 903 632 981 z "},"T":{"ha":653,"x_min":14,"x_max":639,"o":"m 383 939 l 383 0 l 267 0 l 267 939 l 14 939 l 14 1047 l 639 1047 l 639 939 l 383 939 z "},"U":{"ha":951,"x_min":103,"x_max":850,"o":"m 219 1047 l 219 424 q 220 339 219 364 q 232 267 221 314 q 265 190 243 221 q 358 117 299 144 q 476 90 417 90 q 590 115 533 90 q 682 183 646 140 q 718 255 706 213 q 732 326 731 297 q 733 407 733 354 q 733 424 733 418 l 733 1047 l 850 1047 l 850 392 q 833 226 850 292 q 758 101 815 161 q 476 -18 647 -18 q 206 89 315 -18 q 123 218 143 149 q 103 392 103 288 l 103 1047 l 219 1047 z "},"V":{"ha":867,"x_min":8,"x_max":858,"o":"m 135 1047 l 433 249 l 732 1047 l 858 1047 l 433 -62 l 8 1047 l 135 1047 z "},"W":{"ha":1515,"x_min":18,"x_max":1499,"o":"m 144 1047 l 419 263 l 758 1101 l 1097 263 l 1372 1047 l 1499 1047 l 1097 -54 l 758 789 l 419 -54 l 18 1047 l 144 1047 z "},"X":{"ha":783,"x_min":18,"x_max":765,"o":"m 328 542 l 44 1047 l 178 1047 l 392 653 l 606 1047 l 739 1047 l 456 542 l 765 0 l 632 0 l 392 431 l 151 0 l 18 0 l 328 542 z "},"Y":{"ha":824,"x_min":11,"x_max":814,"o":"m 354 450 l 11 1047 l 146 1047 l 413 581 l 679 1047 l 814 1047 l 471 450 l 471 0 l 354 0 l 354 450 z "},"Z":{"ha":814,"x_min":19,"x_max":785,"o":"m 213 108 l 769 108 l 769 0 l 19 0 l 590 939 l 92 939 l 92 1047 l 785 1047 l 213 108 z "}}}
